# xmcd
#
# Track frame offsets:
#	150
#	13259
#	28646
#	42270
#	54503
#	66838
#	79326
#	93965
#	110142
#	124369
#	136933
#	150218
#	166125
#	178911
#	193791
#	207121
#	220559
#	234530
#	250276
#	265260
#	280786
#	296113
#	311283
#	325128
#	338940
#
# Disc length: 4754
#
# Revision: 1
# Processed by: cddbd v1.5.1PL0 Copyright (c) Steve Scherf et al.
# Submitted via: WhereIsIt 3.51
# Normalized: r0:DSETVAR1
#
DISCID=6e129019
DTITLE=Various Artist - When The Sun Goes Down [CD 1) - Walk Right In
DYEAR=1900
DGENRE=Blues
TTITLE0=Robert Petway - Catfish Blues
TTITLE1=Big Joe Williams - Baby, Please Don't Go
TTITLE2=Leadbelly - Ham an' Eggs
TTITLE3=Big Bill Broonzy - Mississippi River Blues
TTITLE4=Trixie Butler - Just a Good Woman Through With the Blues
TTITLE5=Milton Brown and his Musical Brownies - Garbage Man Blues
TTITLE6=Bukka "Washington" White - The Panama Limited
TTITLE7=Tommy Johnson - Cool Drink of Water Blues
TTITLE8=Leadbelly - The Midnight Special
TTITLE9=Carter Family - Worried Man Blues
TTITLE10=Amede Ardoin and Denus McGee - Les Blues de Voyage
TTITLE11=Andrew and Jim Baxter - K. C. Railroad Blues
TTITLE12=Rev. J. M. Gates - Somebody's Been Stealin'
TTITLE13=Alberta Hunter - Beale Street Blues
TTITLE14=Noah Lewis - Devil in the Wood Pile
TTITLE15=Gus Cannon's Jug Stompers - Walk Right In
TTITLE16=Julius Daniels - Ninety-nine Year Blues
TTITLE17=Bessie Tucker - Got Cut All to Pieces
TTITLE18=Gus Cannon's Jug Stompers - Feather Bed
TTITLE19=Julius Daniels - Can't Put a Bridle on that Mule this Morning
TTITLE20=Deford Bailey - Davidson County Blues
TTITLE21=Frank Crumit - Frankie and Johnny
TTITLE22=Taskiana Four - Dixie Bo-Bo
TTITLE23=Paul Robeson - Sometimes I feel like a motherless child
TTITLE24=Hall Johnson Choir - St. Louis Blues
EXTD=
EXTT0=
EXTT1=
EXTT2=
EXTT3=
EXTT4=
EXTT5=
EXTT6=
EXTT7=
EXTT8=
EXTT9=
EXTT10=
EXTT11=
EXTT12=
EXTT13=
EXTT14=
EXTT15=
EXTT16=
EXTT17=
EXTT18=
EXTT19=
EXTT20=
EXTT21=
EXTT22=
EXTT23=
EXTT24=
PLAYORDER=
